HIERARCHY
ROOT SpineBase
{
  OFFSET 0.000000 0.000000 0.000000
  CHANNELS 6 Xposition Yposition Zposition Zrotation Xrotation Yrotation
  JOINT SpineMid
  {
    OFFSET 0.000000 33.553954 0.000000
    CHANNELS 3 Zrotation Xrotation Yrotation
    JOINT SpineShoulder
    {
      OFFSET -0.121895 24.894085 -0.853723
      CHANNELS 3 Zrotation Xrotation Yrotation
      JOINT Neck
      {
        OFFSET -0.099482 8.229514 -0.638038
        CHANNELS 3 Zrotation Xrotation Yrotation
        JOINT Head
        {
          OFFSET 0.056219 14.998601 -1.823369
          CHANNELS 3 Zrotation Xrotation Yrotation
          End Site
          {
            OFFSET 0 0 0
          }
        }
      }
      JOINT ShoulderLeft
      {
        OFFSET -17.415527 -2.170209 4.764071
        CHANNELS 3 Zrotation Xrotation Yrotation
        JOINT ElbowLeft
        {
          OFFSET -3.513616 -23.456483 -3.307572
          CHANNELS 3 Zrotation Xrotation Yrotation
          JOINT WristLeft
          {
            OFFSET 14.237680 2.604528 -18.935487
            CHANNELS 3 Zrotation Xrotation Yrotation
            JOINT HandLeft
            {
              OFFSET 5.273896 0.249911 -3.516847
              CHANNELS 3 Zrotation Xrotation Yrotation
              JOINT HandTipLeft
              {
                OFFSET 2.901756 0.403202 -1.944283
                CHANNELS 3 Zrotation Xrotation Yrotation
                End Site
                {
                  OFFSET 0 0 0
                }
              }
              JOINT ThumbLeft
              {
                OFFSET 1.254976 4.612909 -0.942116
                CHANNELS 3 Zrotation Xrotation Yrotation
                End Site
                {
                  OFFSET 0 0 0
                }
              }
            }
          }
        }
      }
      JOINT ShoulderRight
      {
        OFFSET 15.736555 -1.727719 -2.294838
        CHANNELS 3 Zrotation Xrotation Yrotation
        JOINT ElbowRight
        {
          OFFSET 5.667642 -21.121044 -0.915763
          CHANNELS 3 Zrotation Xrotation Yrotation
          JOINT WristRight
          {
            OFFSET -20.317518 -0.753666 -18.212706
            CHANNELS 3 Zrotation Xrotation Yrotation
            JOINT HandRight
            {
              OFFSET -2.817129 0.988895 0.293333
              CHANNELS 3 Zrotation Xrotation Yrotation
              JOINT HandTipRight
              {
                OFFSET -3.144962 -0.973690 0.158086
                CHANNELS 3 Zrotation Xrotation Yrotation
                End Site
                {
                  OFFSET 0 0 0
                }
              }
              JOINT ThumbRight
              {
                OFFSET -3.732845 -3.226260 0.610384
                CHANNELS 3 Zrotation Xrotation Yrotation
                End Site
                {
                  OFFSET 0 0 0
                }
              }
            }
          }
        }
      }
    }
  }
  JOINT HipLeft
  {
    OFFSET -7.994145 0.695156 -2.367411
    CHANNELS 3 Zrotation Xrotation Yrotation
    JOINT KneeLeft
    {
      OFFSET -4.851259 -35.025388 -4.340506
      CHANNELS 3 Zrotation Xrotation Yrotation
      JOINT AnkleLeft
      {
        OFFSET -3.401979 -36.794696 6.481258
        CHANNELS 3 Zrotation Xrotation Yrotation
        JOINT FootLeft
        {
          OFFSET -3.295582 -8.398252 -6.723426
          CHANNELS 3 Zrotation Xrotation Yrotation
          End Site
          {
            OFFSET 0 0 0
          }
        }
      }
    }
  }
  JOINT HipRight
  {
    OFFSET 6.742609 1.101688 -5.335145
    CHANNELS 3 Zrotation Xrotation Yrotation
    JOINT KneeRight
    {
      OFFSET 3.518749 -33.404220 -3.189254
      CHANNELS 3 Zrotation Xrotation Yrotation
      JOINT AnkleRight
      {
        OFFSET -1.559992 -37.052478 10.727182
        CHANNELS 3 Zrotation Xrotation Yrotation
        JOINT FootRight
        {
          OFFSET -2.590311 -3.159556 -13.939419
          CHANNELS 3 Zrotation Xrotation Yrotation
          End Site
          {
            OFFSET 0 0 0
          }
        }
      }
    }
  }
}
MOTION
Frames: 10
Frame Time: 0.033333
36.035344 104.529078 343.661163 9.694254 -17.547575 -4.983662 0.339144 -0.026355 6.684960 0.128703 0.170791 0.268166 10.424326 22.670945 -3.780072 0.000000 0.000000 0.000000 -36.523463 47.779765 13.701594 27.012543 -21.260287 4.201099 3.284934 -1.220317 17.247493 -1.427060 -1.258104 -13.405621 0.000000 0.000000 0.000000 0.000000 0.000000 0.000000 -10.425955 -21.170945 -9.926156 -7.120160 38.313052 3.003981 15.908694 10.995792 21.411341 -44.642632 22.487343 -47.861199 0.000000 0.000000 0.000000 0.000000 0.000000 0.000000 -29.395431 39.834490 14.466902 2.903284 -42.333979 -0.175380 28.879757 19.521859 -25.081287 0.000000 0.000000 0.000000 9.152530 0.923361 1.292714 -6.418034 18.109633 6.358418 -10.016569 -22.050272 -30.972110 0.000000 0.000000 0.000000
33.086793 103.371043 344.928547 7.804735 -18.922419 -15.699712 0.374866 0.078683 17.119361 0.304484 0.558915 0.142817 14.684955 20.919382 -4.264260 0.000000 0.000000 0.000000 -145.424800 51.742891 105.726291 94.299195 -43.258449 60.764676 -3.507580 -9.745869 23.476385 9.598173 3.336183 -13.314571 0.000000 0.000000 0.000000 0.000000 0.000000 0.000000 -14.400138 -15.668232 -8.254622 4.545102 32.760774 -1.560029 11.451903 23.239802 39.485331 -33.324193 28.174659 -79.110040 0.000000 0.000000 0.000000 0.000000 0.000000 0.000000 -28.921060 36.047406 23.312087 -3.010014 -38.121343 -1.436459 27.342259 18.538675 -22.236224 0.000000 0.000000 0.000000 11.248189 8.392244 10.188127 -7.344468 14.754888 6.539454 -10.028712 -16.496517 -34.121292 0.000000 0.000000 0.000000
30.516228 102.577294 346.560471 6.100725 -20.017261 -24.792324 0.052772 -0.178017 25.985804 0.641252 0.874404 0.002300 19.453594 16.749763 -4.271014 0.000000 0.000000 0.000000 -169.378257 32.836561 126.308667 119.780115 -35.928111 89.433902 -14.036135 -22.794761 23.008738 27.290889 10.873747 -9.050446 0.000000 0.000000 0.000000 0.000000 0.000000 0.000000 -20.360024 -8.492115 -4.978331 15.764252 25.965871 -6.078224 9.652784 26.027290 43.891902 -28.341510 32.174296 -92.801743 0.000000 0.000000 0.000000 0.000000 0.000000 0.000000 -24.261941 32.500810 29.147760 -12.974737 -27.855132 -3.910932 27.900473 12.083865 -16.715267 0.000000 0.000000 0.000000 9.905630 15.110376 18.274170 -6.483375 11.648413 6.429637 -9.748038 -8.847522 -35.294812 0.000000 0.000000 0.000000
28.628232 107.267042 346.764819 4.903131 -21.044151 -37.593229 0.120043 -0.631681 38.628593 0.914572 0.964812 -0.102332 24.813372 11.341740 -4.033228 0.000000 0.000000 0.000000 -177.743531 24.958161 136.867234 127.934930 -35.012564 107.206407 -20.953387 -25.451252 9.602749 25.981719 13.649018 6.908350 0.000000 0.000000 0.000000 0.000000 0.000000 0.000000 -27.522249 -1.208674 -0.255744 27.245629 17.118897 -9.764613 17.690404 29.661202 36.460495 -27.852098 29.078337 -102.880688 0.000000 0.000000 0.000000 0.000000 0.000000 0.000000 -18.111343 24.895706 38.718867 -23.782743 -8.624628 -4.248530 38.384652 8.785081 -19.357944 0.000000 0.000000 0.000000 0.821003 21.312066 32.938119 -4.005325 5.543003 5.816514 -6.934901 1.136351 -37.418573 0.000000 0.000000 0.000000
27.800746 104.956381 349.078923 4.115018 -21.708188 -42.671571 0.006444 -0.865097 43.600262 0.997220 1.039626 -0.162248 24.832697 6.948137 -2.954863 0.000000 0.000000 0.000000 175.145501 21.890167 149.740788 127.836743 -38.228524 120.004110 -39.595144 -31.901073 -13.380220 44.371392 31.067599 21.142514 0.000000 0.000000 0.000000 0.000000 0.000000 0.000000 -32.305188 2.596736 3.162540 36.751070 8.736075 -10.862111 29.254989 36.835341 27.397577 -31.992850 21.219647 -111.645776 0.000000 0.000000 0.000000 0.000000 0.000000 0.000000 -9.695923 21.763341 41.392367 -34.078605 10.558333 -1.678678 48.260517 -1.456869 -14.653347 0.000000 0.000000 0.000000 -7.158304 21.722629 40.860979 -0.491848 1.067488 5.111444 -3.885049 7.643329 -39.818877 0.000000 0.000000 0.000000
27.344913 98.594313 351.888053 4.262915 -22.849799 -49.773379 -0.083170 -1.098087 50.830937 0.896426 1.007554 -0.172828 21.726602 9.849317 -3.409328 0.000000 0.000000 0.000000 171.775706 20.608587 156.606808 116.150576 -41.022705 116.288286 -9.974203 -21.840603 -33.562684 1.820668 29.116152 65.869173 0.000000 0.000000 0.000000 0.000000 0.000000 0.000000 -34.448217 4.482168 5.008648 44.609122 1.216267 -10.052674 37.897114 48.353567 22.198766 -37.419365 17.996016 -124.448051 0.000000 0.000000 0.000000 0.000000 0.000000 0.000000 -4.120458 16.533631 48.163542 -37.418786 25.873226 3.130351 56.244547 -9.561714 -13.612897 0.000000 0.000000 0.000000 -16.425207 19.665979 50.926913 2.774477 -3.153844 4.524291 -1.021683 11.222308 -43.068120 0.000000 0.000000 0.000000
27.702003 90.839175 354.436276 4.979935 -23.638977 -47.631302 -0.118195 -1.122044 48.902493 0.536964 0.899333 -0.108865 14.110819 17.198262 -3.456235 0.000000 0.000000 0.000000 167.211149 18.325354 164.394591 109.890765 -44.760201 114.978827 12.300339 -15.595696 -25.004908 -13.825498 -0.148923 63.584805 0.000000 0.000000 0.000000 0.000000 0.000000 0.000000 -34.200674 4.139227 4.730834 51.840705 -5.338400 -7.760037 67.261206 50.419522 -6.369530 -56.484360 8.679443 -112.606762 0.000000 0.000000 0.000000 0.000000 0.000000 0.000000 -1.531656 14.137800 46.439682 -42.461571 36.707959 7.034144 71.468560 -12.207501 -14.790514 0.000000 0.000000 0.000000 -17.437789 14.299690 49.514666 5.910557 -1.251104 3.618353 2.113412 12.241476 -47.429751 0.000000 0.000000 0.000000
28.478860 81.576347 356.395375 5.774711 -23.469921 -28.386464 -0.370634 -0.855925 29.809396 0.214090 0.542132 -0.016601 2.032769 25.000658 -1.186287 0.000000 0.000000 0.000000 161.473262 19.082176 175.093093 106.974406 -50.902405 107.400197 -9.233746 -28.422580 -14.126965 3.562308 13.059319 38.891192 0.000000 0.000000 0.000000 0.000000 0.000000 0.000000 -31.206482 -0.442944 1.179941 59.863007 -9.941432 -3.868654 85.264557 52.469034 -28.578093 -63.802008 -4.647580 -102.398217 0.000000 0.000000 0.000000 0.000000 0.000000 0.000000 1.414730 17.682659 25.877022 -50.416865 40.350670 8.423636 99.786820 -22.306748 -2.271170 0.000000 0.000000 0.000000 -12.020169 7.243934 30.089316 9.813879 7.543923 2.155095 4.493916 9.859272 -52.857232 0.000000 0.000000 0.000000
29.448986 71.986019 358.576055 6.976494 -24.181239 -2.007244 -0.761515 -0.021795 3.745500 -0.103819 0.604109 0.065885 -15.596560 33.278936 4.694786 0.000000 0.000000 0.000000 150.765277 20.506671 -164.408801 80.878722 -58.915541 71.905880 6.162913 -17.305068 19.178402 -11.828272 -7.736312 24.943532 0.000000 0.000000 0.000000 0.000000 0.000000 0.000000 -28.879295 -2.952271 -0.852182 67.850895 -14.914684 1.575728 96.390299 54.667974 -45.847761 -59.977013 -24.974405 -81.586647 0.000000 0.000000 0.000000 0.000000 0.000000 0.000000 7.792972 26.038325 -3.747596 -52.564778 38.192628 3.975822 114.646928 -23.557233 11.785081 0.000000 0.000000 0.000000 -13.688458 3.089387 5.040495 14.952267 13.920464 0.370329 5.827871 6.189850 -62.061238 0.000000 0.000000 0.000000
30.231944 62.140964 359.275593 7.864435 -23.805610 21.208440 -0.398655 0.414889 -19.333661 -0.253107 0.283925 0.145993 -36.460152 39.225765 14.005866 0.000000 0.000000 0.000000 135.230489 23.434562 -136.435945 43.306917 -53.420678 8.983766 -5.075144 -13.460757 66.006399 -18.393880 -13.975629 -4.671128 0.000000 0.000000 0.000000 0.000000 0.000000 0.000000 -25.580044 -5.577501 -2.995818 69.695749 -15.347566 4.849831 102.920804 60.630122 -56.778441 -51.564923 -35.693226 -65.210204 0.000000 0.000000 0.000000 0.000000 0.000000 0.000000 21.098879 33.762714 -33.355084 -55.403471 35.196066 -3.363876 133.474673 -20.454172 27.083195 0.000000 0.000000 0.000000 -17.452355 -0.474541 -18.048599 15.787011 23.082196 -1.069175 3.179956 -6.629852 -65.992775 0.000000 0.000000 0.000000
